P2
# CREATOR: Reed College... Hell Yeah!
64
51
255
4
2
3
5
5
5
4
4
5
5
7
6
12
11
12
10
14
14
14
14
16
16
18
19
19
20
20
21
21
24
21
21
22
21
23
20
20
18
21
25
24
20
19
19
18
17
18
16
15
13
14
12
12
12
10
12
14
13
13
12
9
8
7
6
5
2
3
5
5
5
4
4
5
5
6
6
11
10
11
10
13
14
14
14
15
16
18
18
18
18
20
20
21
24
21
21
21
22
22
22
21
18
21
23
22
19
18
18
16
16
17
16
14
13
13
11
12
12
10
12
13
12
12
11
9
7
7
5
4
2
3
5
5
5
3
3
5
5
5
5
11
10
10
10
13
14
14
14
15
16
17
18
17
17
18
19
28
42
43
35
26
21
18
19
21
19
19
22
21
18
17
16
15
15
16
16
13
12
12
10
12
12
10
12
13
12
12
11
8
7
6
5
4
2
3
5
5
5
3
3
5
4
4
5
11
9
9
9
12
13
14
14
14
15
16
16
16
15
24
45
77
96
88
74
54
32
24
19
17
19
17
18
18
17
16
15
14
15
16
15
12
12
12
9
11
11
9
12
13
12
12
11
8
7
6
5
4
2
3
5
5
4
2
3
5
3
3
6
11
9
8
8
11
13
14
13
13
15
16
16
15
24
55
81
90
102
108
111
102
78
48
22
19
19
17
19
18
16
16
15
14
14
16
14
10
12
11
8
10
11
9
11
13
13
13
11
8
7
7
5
3
2
3
4
4
3
2
3
5
3
3
6
10
8
6
8
11
13
13
12
12
14
16
14
18
62
83
111
148
184
200
200
186
140
72
21
19
18
17
18
17
16
16
15
13
14
15
13
9
11
11
7
9
11
8
11
13
13
13
11
7
7
6
4
3
2
3
4
4
3
2
3
5
3
3
5
8
7
6
8
12
13
12
10
11
14
16
16
27
90
103
142
193
223
225
220
209
172
105
28
17
19
17
17
15
15
16
14
13
13
14
12
8
11
10
6
9
11
8
11
13
13
12
9
7
7
6
4
2
2
3
4
3
2
1
4
4
3
3
5
7
6
5
8
12
12
11
10
11
14
15
15
29
97
114
153
192
194
176
186
188
155
116
40
16
17
16
17
15
14
15
14
12
13
13
11
7
10
9
6
9
11
8
11
12
12
11
9
6
6
6
3
3
2
3
5
3
2
2
5
4
3
3
6
7
5
4
8
11
11
11
9
9
14
14
14
28
101
124
159
180
163
133
151
149
114
103
45
16
16
17
15
14
15
14
13
11
13
13
11
7
10
10
7
10
9
8
11
11
13
10
8
7
7
5
3
2
2
3
5
4
2
2
3
3
3
3
6
6
5
4
7
11
12
12
9
7
13
13
15
41
134
156
175
192
195
177
185
178
150
123
47
18
17
17
15
14
15
13
13
10
13
13
11
6
10
9
6
11
9
9
11
11
13
10
8
6
7
5
4
3
2
2
4
5
2
2
4
3
2
3
6
6
4
4
6
11
12
12
8
7
12
13
15
39
145
179
178
192
210
201
188
173
172
142
44
18
15
15
16
15
15
13
12
9
12
13
10
6
9
9
6
11
9
9
11
12
13
11
9
7
7
5
5
2
2
4
4
3
2
2
4
2
2
3
6
5
3
3
6
11
12
11
8
6
12
14
13
22
111
179
177
182
185
179
159
121
126
117
35
16
17
16
15
14
14
13
12
8
12
13
9
5
8
8
6
11
9
8
11
12
13
11
10
7
7
4
5
3
2
4
3
3
2
2
4
2
2
3
6
5
3
3
6
11
11
10
7
6
12
14
15
14
51
125
155
169
169
160
141
113
109
89
25
16
15
15
15
14
14
13
11
8
12
12
8
5
8
8
6
10
8
8
10
12
12
12
10
7
7
4
5
2
2
5
3
3
1
2
5
3
2
4
7
4
3
4
7
11
11
9
7
6
12
15
16
13
16
75
140
154
167
170
134
110
109
71
17
15
16
17
15
15
14
13
11
7
12
12
8
5
8
8
6
10
8
8
10
12
12
11
8
6
6
4
5
3
2
3
9
16
7
2
5
2
2
4
8
4
2
4
8
11
11
9
7
6
12
14
15
12
13
70
146
136
144
181
169
141
105
43
14
15
17
18
15
15
14
13
11
7
12
13
7
4
8
8
6
11
9
9
11
12
12
11
7
5
6
3
4
3
2
8
47
89
52
10
4
2
2
5
7
4
2
4
8
11
11
9
7
6
11
13
16
15
22
86
159
137
106
115
123
115
70
22
17
14
14
14
15
16
14
13
11
7
12
13
7
4
8
8
6
11
9
8
11
12
12
9
8
16
10
3
4
2
2
5
42
111
97
40
5
2
2
4
13
6
2
3
8
12
12
9
5
7
12
23
44
65
85
128
179
163
122
71
61
87
65
56
55
31
17
14
14
15
13
11
11
6
12
12
7
4
9
8
6
11
11
16
9
10
10
7
35
73
45
12
4
3
3
4
22
84
109
90
26
2
2
25
67
31
5
3
10
14
12
11
14
29
58
91
117
128
128
145
197
192
154
106
107
122
77
86
103
88
59
34
18
14
14
14
13
6
11
12
7
6
10
6
5
11
38
85
38
10
7
27
86
105
78
36
7
2
3
3
18
80
108
123
81
18
11
76
110
37
4
8
25
31
31
34
44
60
81
105
127
136
133
137
180
201
185
170
182
140
79
93
115
111
95
68
38
23
17
14
12
5
12
14
6
5
11
7
5
10
52
143
76
11
24
92
137
102
60
19
5
2
4
4
19
77
101
130
132
69
37
100
83
14
6
34
42
38
39
42
48
57
55
53
80
115
132
130
144
152
145
147
153
110
87
102
106
79
49
42
47
46
35
20
12
8
12
12
6
5
9
7
5
9
41
132
82
35
87
149
135
91
48
8
4
3
3
5
6
35
79
120
134
132
120
134
63
11
22
49
34
34
36
41
46
53
50
27
27
56
86
103
114
125
121
115
112
106
109
97
65
30
17
37
60
59
52
38
30
26
21
14
6
6
11
7
6
13
50
143
127
115
150
164
113
78
60
16
5
3
3
5
4
15
63
113
130
161
179
160
63
37
53
44
30
33
38
40
39
46
46
21
14
21
33
70
94
106
117
116
115
113
91
48
28
17
16
40
60
56
50
42
39
42
47
42
20
8
11
7
5
12
71
172
175
157
147
156
122
66
41
7
4
3
3
3
3
7
48
113
144
172
183
139
65
61
55
29
34
30
38
36
38
45
43
20
12
15
24
55
77
58
81
90
91
105
70
29
20
13
15
41
55
50
46
42
38
36
45
59
50
29
15
7
6
15
80
168
179
162
146
144
115
66
47
11
4
2
4
3
3
2
22
81
131
163
159
96
57
50
33
30
37
24
37
35
37
42
36
17
9
9
14
36
74
49
64
76
78
97
51
21
13
12
13
37
50
48
46
41
44
42
32
43
56
55
38
14
14
23
72
149
181
176
151
121
86
57
45
11
5
3
3
4
3
2
14
47
89
121
111
50
28
29
32
40
33
21
35
34
36
39
35
15
8
11
11
17
62
56
54
61
76
78
26
14
10
10
11
34
48
49
50
38
45
54
35
30
41
55
57
36
29
21
48
119
168
164
117
68
26
12
10
2
5
2
4
3
2
10
32
33
45
55
53
28
10
24
41
39
23
21
32
29
33
36
30
10
8
24
31
13
44
57
42
45
74
52
14
20
15
8
14
36
46
48
51
38
46
60
42
32
38
45
47
38
31
20
29
75
115
96
51
34
11
8
6
2
5
2
4
3
9
33
41
24
32
27
30
26
9
18
31
29
17
24
32
27
34
40
31
8
9
29
38
14
31
55
36
48
74
33
18
41
28
8
12
35
44
44
46
36
43
61
52
43
48
45
37
32
24
17
10
18
33
22
11
29
18
8
8
3
5
4
5
4
22
52
33
14
35
40
30
14
3
12
22
28
25
31
32
23
30
37
30
7
5
11
14
6
17
52
43
63
65
17
15
38
25
7
14
35
41
40
41
35
39
55
50
43
46
39
33
30
15
11
5
2
4
2
5
31
29
15
7
2
5
4
4
6
35
52
19
2
6
7
5
1
2
11
19
21
26
33
32
22
27
34
30
8
4
5
6
5
10
52
58
73
47
8
6
14
8
6
16
34
36
39
40
38
35
39
36
32
36
33
30
24
6
2
1
0
0
0
4
25
28
24
8
2
5
5
4
8
37
39
8
1
0
0
0
0
1
7
17
18
21
29
28
22
26
28
25
5
2
5
7
5
8
45
64
75
35
6
5
5
4
5
14
30
36
40
41
42
34
29
26
28
33
31
28
16
2
0
0
0
0
1
8
24
24
24
11
3
4
5
4
11
31
30
5
0
0
0
0
0
0
2
12
21
21
27
28
24
25
23
20
5
3
4
6
5
8
31
53
68
26
5
5
5
4
4
10
27
39
39
39
42
34
27
23
23
26
22
23
14
2
0
0
0
0
2
11
24
25
27
13
3
4
5
6
17
25
22
4
0
0
0
0
0
0
1
7
19
19
21
23
24
25
20
14
3
2
4
5
7
10
26
41
57
20
6
5
4
3
3
8
21
33
35
34
32
26
22
20
18
18
16
20
14
2
0
0
0
0
1
9
22
28
29
9
2
4
4
5
22
23
18
4
0
0
0
0
0
0
0
1
8
16
19
20
21
21
17
7
1
2
4
5
8
12
29
47
48
13
7
7
4
3
3
6
16
30
31
31
24
21
16
20
16
11
15
22
20
7
2
0
0
1
0
3
17
36
32
7
2
4
4
6
20
18
13
3
0
0
0
0
1
2
1
2
4
12
15
16
21
23
17
6
1
3
4
6
7
13
44
94
86
27
6
7
4
2
4
11
18
30
28
27
23
15
10
14
8
8
12
14
18
14
10
2
1
5
2
2
12
41
32
6
1
5
6
9
16
15
11
3
1
0
3
3
8
11
9
11
8
13
12
8
18
25
19
9
3
3
4
5
7
32
110
199
204
114
20
6
7
3
4
15
20
26
24
22
20
7
6
12
6
6
4
5
12
16
18
4
3
12
4
6
11
38
23
5
2
5
4
5
7
11
8
5
3
2
8
12
15
15
14
20
16
14
6
3
15
24
15
6
2
2
4
6
9
57
158
231
247
191
48
7
4
2
4
16
18
21
20
21
15
3
5
10
5
6
10
13
13
17
18
4
6
13
3
8
14
29
13
4
2
3
4
3
3
9
7
5
5
3
10
27
24
16
13
23
24
18
4
2
15
23
10
2
1
2
4
5
8
50
138
222
248
202
54
7
2
2
5
17
16
15
16
22
15
3
4
11
16
22
26
22
17
24
21
7
11
15
3
6
14
21
10
4
2
4
4
2
2
7
5
4
6
5
8
28
23
18
14
19
21
15
7
7
17
21
10
3
4
4
5
6
7
24
97
196
219
141
28
4
4
3
4
14
14
14
13
19
10
2
9
19
27
29
25
20
15
25
24
18
19
18
3
5
13
14
9
4
2
4
4
3
2
3
4
1
2
2
6
15
9
17
19
21
22
19
20
21
22
23
19
15
16
18
19
17
19
26
58
98
104
55
20
18
16
15
14
17
17
17
15
20
13
5
4
8
17
25
27
34
19
22
27
30
27
17
3
6
9
8
6
5
2
3
3
2
1
2
6
2
0
1
4
11
7
18
17
17
18
17
19
22
21
21
21
18
19
19
21
22
23
25
29
29
30
29
29
31
30
32
31
32
31
27
26
29
27
24
22
22
23
25
30
43
23
24
32
36
29
14
3
7
5
5
6
4
1
2
3
1
1
3
6
3
1
0
2
8
7
15
16
17
16
16
16
17
18
19
17
16
18
19
19
21
22
24
26
26
25
28
28
30
29
31
32
31
31
27
27
26
28
31
30
31
31
27
21
21
13
17
25
30
24
9
5
7
3
4
7
4
1
2
3
1
1
3
4
3
1
0
1
5
6
14
14
14
13
14
14
14
16
17
15
14
16
18
19
19
20
21
24
26
25
27
27
28
27
28
29
28
28
25
24
24
25
26
26
29
31
26
17
14
13
13
14
18
17
7
5
7
2
5
7
3
2
3
3
2
1
3
3
3
3
0
0
3
5
13
13
13
12
13
13
13
15
16
14
13
14
16
17
17
19
20
23
25
24
25
26
27
26
27
27
25
25
23
23
25
24
22
24
29
30
25
17
17
14
8
4
7
13
11
8
6
2
5
7
3
2
3
3
2
2
4
3
3
4
1
0
1
5
12
12
12
12
12
12
13
15
14
12
12
14
16
16
16
19
20
22
23
22
23
25
26
26
26
25
24
24
22
23
25
23
20
24
28
28
25
16
15
7
2
2
2
6
10
8
5
2
6
7
3
1
2
2
2
2
4
3
4
6
2
0
1
4
10
9
9
9
10
12
14
14
13
11
12
14
17
17
15
17
19
20
21
20
21
23
23
25
25
23
23
22
20
21
22
20
20
24
26
24
22
14
9
3
3
7
8
8
10
8
4
2
6
7
3
1
2
3
2
2
4
3
4
7
5
2
1
3
8
6
7
7
7
10
13
13
11
9
10
13
16
18
15
15
16
16
18
18
20
19
19
22
23
21
20
20
19
19
19
19
20
24
24
21
20
13
6
3
6
10
9
9
7
6
3
2
6
6
3
1
2
3
2
2
3
2
4
7
8
5
1
3
5
4
5
5
5
7
11
10
8
7
7
10
14
18
15
15
16
16
16
17
18
15
14
19
21
19
19
18
17
18
18
18
20
22
21
19
17
9
5
4
7
8
8
10
8
6
3
2
6
5
3
1
1
2
1
3
3
3
3
6
8
5
1
1
3
3
4
4
4
6
8
8
6
5
5
7
11
17
16
18
22
19
19
16
17
13
11
17
19
17
18
17
16
16
15
16
18
18
18
16
14
7
5
4
5
8
9
9
7
6
2
3
5
5
3
1
2
2
2
3
3
3
5
8
8
4
1
1
2
2
2
3
3
6
8
6
4
4
4
4
5
11
17
25
33
29
26
17
16
12
8
10
15
15
15
14
14
14
13
14
15
16
16
14
12
4
4
3
5
8
8
8
7
6
2
2
5
5
4
2
2
3
2
4
3
3
5
8
8
3
0
1
2
1
1
2
5
13
12
6
3
2
2
2
1
5
12
20
25
27
25
13
11
10
7
8
14
14
14
13
12
13
12
12
13
15
15
13
11
3
2
3
5
8
7
7
7
5
2
2
5
4
3
1
1
2
2
3
3
3
6
10
11
5
1
1
1
0
0
2
4
13
12
6
2
1
1
1
0
1
6
13
18
24
23
14
11
8
6
6
12
12
13
12
11
11
10
10
12
13
13
11
9
2
2
2
5
8
7
7
7
5
2
2
4
4
3
1
1
