P2
# CREATOR: Reed College... Hell Yeah!
60
68
255
0
0
0
0
0
0
0
0
0
0
0
0
0
0
0
0
0
0
0
0
0
0
0
0
0
0
0
0
0
0
0
0
0
0
0
0
0
0
0
0
0
0
0
0
0
0
0
0
0
0
0
0
0
0
0
0
0
0
0
0
0
0
0
0
0
0
0
0
0
0
0
0
0
0
0
0
0
0
0
0
0
0
0
0
0
0
0
0
0
0
0
0
0
0
0
0
0
0
0
0
0
0
0
0
0
0
0
0
0
0
0
0
0
0
0
0
0
0
0
0
0
0
0
0
0
0
0
0
0
0
0
0
0
0
0
0
0
0
0
0
1
0
33
134
198
231
238
232
205
156
73
0
0
0
0
0
0
0
0
49
0
0
0
0
0
0
0
0
0
0
0
0
0
0
0
0
0
0
0
0
0
0
0
0
0
0
0
0
0
0
0
0
0
0
0
0
4
67
139
188
64
99
238
238
238
238
238
238
238
238
238
238
116
0
0
0
0
0
101
238
42
0
0
0
0
0
0
0
0
0
0
0
0
0
0
0
0
0
0
0
0
0
0
0
0
0
0
0
0
0
0
0
0
0
63
172
238
238
238
62
0
238
238
238
238
238
238
238
238
238
238
238
238
194
0
0
0
0
92
238
238
235
210
213
236
238
229
196
128
35
0
0
0
0
0
0
0
0
0
0
0
0
0
0
0
0
0
0
0
0
0
0
92
224
238
238
238
238
238
33
0
185
238
238
238
238
238
238
238
238
238
238
238
238
95
0
0
0
0
191
238
238
238
238
238
238
238
238
238
238
133
0
0
0
0
0
0
0
0
0
0
0
0
0
0
0
0
0
0
0
25
216
238
238
238
238
238
238
238
181
37
0
183
238
238
238
238
238
238
238
238
238
238
238
118
0
0
0
0
0
29
238
238
238
230
130
127
188
238
238
238
22
0
0
0
0
0
0
0
0
0
0
0
0
0
0
0
0
0
0
111
238
238
238
238
238
238
230
179
222
218
203
13
63
184
236
238
238
238
238
238
238
238
238
23
0
0
0
0
7
107
238
238
238
238
238
190
45
225
115
74
50
0
0
0
0
0
0
0
0
0
0
0
0
0
0
0
0
28
140
238
161
114
169
179
152
67
0
73
238
238
208
0
161
228
233
238
238
238
238
238
238
214
40
0
0
0
0
0
187
238
238
238
238
238
238
238
86
43
21
228
238
216
10
0
0
0
0
0
0
0
0
0
0
0
0
8
146
238
238
238
238
237
171
126
79
58
42
3
171
238
238
50
220
238
238
238
238
238
238
149
55
0
0
0
0
0
0
100
238
238
238
238
238
238
152
46
104
171
205
202
237
238
163
0
0
0
0
0
0
0
0
0
0
0
21
233
238
238
238
238
238
238
238
238
238
238
212
222
221
206
180
192
89
232
238
238
238
238
238
30
0
0
0
0
0
0
3
238
238
238
238
238
238
238
80
58
141
134
118
127
181
238
209
0
0
0
0
0
0
0
0
0
0
0
188
238
238
238
238
238
238
238
238
238
219
106
238
238
128
0
0
0
13
0
167
238
238
238
238
0
0
0
0
0
0
0
132
238
238
238
238
238
238
238
210
178
189
207
206
191
170
47
170
0
0
0
0
0
0
0
0
0
0
0
22
178
211
197
203
198
188
152
94
19
0
126
238
238
57
0
0
0
0
196
238
238
238
238
238
12
0
0
0
0
0
15
238
238
238
238
238
238
238
238
238
226
85
0
0
0
0
0
5
0
0
0
0
0
0
0
0
0
0
26
194
238
238
44
7
0
5
17
31
47
106
143
208
231
234
92
50
32
3
222
238
238
238
238
238
46
0
0
0
0
0
164
238
238
238
238
238
238
238
238
232
8
0
0
0
0
0
0
0
0
5
81
63
1
0
0
0
0
90
238
238
238
238
238
238
238
238
238
238
238
238
218
208
176
165
81
7
0
0
112
238
238
238
238
238
117
0
0
0
0
59
238
238
238
238
238
238
238
238
238
94
0
0
0
0
0
0
0
0
0
166
238
238
176
1
0
0
62
238
238
238
238
238
238
238
238
238
238
238
238
158
238
83
0
0
0
0
18
43
28
94
238
238
238
238
222
0
0
0
10
234
238
238
238
238
238
238
238
238
238
35
0
0
0
0
0
0
0
0
0
232
228
162
129
8
0
0
26
214
238
238
238
238
238
238
238
238
167
80
0
100
238
157
75
91
107
32
221
238
238
238
238
238
238
238
238
105
0
26
234
238
151
238
238
238
238
238
238
238
238
40
0
0
0
0
0
0
0
0
0
201
202
238
238
184
0
17
20
0
8
113
229
238
238
238
238
200
0
0
36
228
238
238
238
139
0
0
157
238
238
238
238
238
238
238
238
238
32
0
42
3
43
238
238
221
238
238
238
238
238
117
0
0
0
0
0
0
0
0
0
196
218
229
218
165
70
238
156
175
238
238
238
238
238
238
238
232
0
0
168
238
238
238
238
0
0
0
0
146
227
238
238
238
238
238
238
238
231
11
0
0
0
170
196
12
212
238
238
227
238
238
53
0
0
0
0
0
0
0
0
149
238
56
0
4
119
158
238
238
238
238
238
238
238
238
238
238
223
30
17
221
238
238
238
86
11
7
14
27
104
238
238
238
238
238
238
238
238
236
31
0
0
0
19
4
81
238
212
0
201
238
238
5
0
38
17
0
0
0
14
215
238
64
0
0
20
238
238
238
238
238
238
238
238
238
238
238
238
238
209
78
88
177
214
219
238
238
219
232
238
238
238
238
238
238
238
238
238
238
238
132
16
227
238
236
12
0
7
16
0
0
0
0
0
148
238
0
0
67
238
238
238
238
15
0
0
54
212
232
238
238
238
238
238
238
238
238
238
238
238
238
111
0
0
132
238
142
55
238
238
238
238
238
238
238
238
237
238
238
238
238
238
238
238
238
165
48
238
238
225
54
82
96
165
238
238
9
155
238
238
216
238
238
13
0
0
0
0
0
24
75
92
107
101
117
235
238
238
238
238
238
238
111
1
219
238
225
81
71
197
218
220
220
213
168
81
13
236
238
238
238
238
238
238
238
220
175
238
238
238
238
125
238
238
238
116
0
18
213
58
0
238
177
0
0
0
0
0
0
0
0
0
0
23
238
238
238
238
238
238
238
238
238
238
200
81
0
0
28
207
118
43
6
7
3
0
51
98
209
238
238
238
238
238
238
238
238
238
238
238
238
88
238
186
37
208
238
83
0
0
75
238
238
77
78
0
0
0
0
0
0
0
0
0
199
235
238
238
238
238
237
230
212
106
0
0
0
0
238
238
238
238
238
238
167
169
238
143
0
20
115
154
238
238
237
238
238
238
238
238
238
60
179
56
238
238
227
238
26
0
89
238
238
142
0
0
0
0
0
0
0
0
0
0
0
0
41
72
69
43
0
0
9
27
20
6
0
16
238
227
236
238
238
237
238
238
238
102
139
204
238
238
238
238
86
238
238
238
238
238
238
81
162
238
238
121
0
7
34
0
0
10
69
0
0
0
0
0
0
0
0
0
0
0
0
0
0
0
0
0
8
184
238
238
238
238
66
0
0
110
218
180
25
238
238
238
220
165
238
238
238
238
238
238
0
219
238
238
238
238
238
68
91
238
238
44
0
0
0
0
0
0
0
0
0
0
0
0
0
0
0
0
0
0
0
0
0
0
0
64
238
238
238
238
238
238
238
69
0
0
0
0
167
238
238
238
52
230
238
238
238
238
238
188
0
225
238
238
238
237
199
0
41
238
238
123
0
0
0
0
0
0
0
0
0
0
0
0
0
0
0
0
0
0
0
0
0
0
92
238
238
238
232
209
226
238
238
220
0
0
0
74
238
238
238
85
199
238
238
238
238
238
238
77
18
238
238
238
238
233
219
41
0
238
166
119
0
0
0
0
0
0
0
0
0
0
0
0
0
0
0
0
0
0
0
0
0
76
238
238
238
122
0
0
0
136
238
238
41
0
0
0
170
205
24
225
238
238
238
238
238
238
160
0
139
238
238
238
238
238
238
238
77
0
0
0
0
0
0
0
0
54
98
52
0
0
0
0
0
0
0
0
0
0
0
0
38
238
238
238
64
0
0
0
0
79
238
238
56
0
0
0
0
0
28
238
238
238
153
110
125
32
0
103
238
238
238
238
238
238
238
238
238
78
0
3
0
0
0
0
65
238
238
238
99
0
0
0
0
0
0
0
0
0
0
9
234
238
238
58
0
0
0
0
0
177
238
238
21
0
0
0
0
0
0
85
238
238
238
13
14
109
230
238
238
238
238
238
238
238
238
234
238
238
188
238
42
0
0
0
169
237
236
236
154
0
0
0
0
0
0
0
0
0
10
231
238
238
80
0
0
0
0
0
107
238
238
180
0
0
0
0
0
0
108
238
238
238
238
104
126
238
238
238
238
238
238
238
238
238
228
0
40
231
238
238
75
0
0
102
226
171
238
178
89
0
36
31
0
0
0
0
0
43
238
238
238
113
0
0
0
0
0
162
238
238
236
10
0
0
0
0
5
199
238
238
238
238
238
196
111
238
238
238
238
238
238
238
238
238
238
233
165
72
105
147
6
0
0
216
159
238
238
238
119
0
226
150
0
0
0
0
175
238
238
238
158
0
0
0
0
94
238
238
238
232
13
0
0
0
9
179
238
238
238
238
238
238
238
238
72
238
238
238
212
238
238
238
238
238
238
238
238
238
164
0
125
238
230
235
238
238
235
238
152
21
238
238
229
181
226
237
238
238
238
190
0
0
0
114
238
238
238
238
182
0
0
0
39
213
238
238
238
238
238
238
238
238
238
238
142
21
87
0
87
238
238
238
224
213
238
72
5
184
238
0
101
238
238
205
162
171
0
62
153
0
220
238
238
238
238
238
238
238
208
0
0
0
211
238
238
238
128
4
0
0
13
215
238
238
238
238
238
238
238
238
238
238
238
238
238
84
0
0
0
171
238
238
93
29
238
24
0
0
3
0
0
9
177
217
6
0
0
71
5
0
24
228
238
238
238
238
238
214
0
0
0
196
238
238
146
0
0
0
0
49
238
238
238
238
238
238
238
238
238
238
238
238
238
238
238
238
198
27
0
0
46
225
31
0
1
0
0
0
0
0
12
223
238
238
112
0
0
0
0
0
0
60
238
238
238
238
238
17
0
0
65
238
238
176
0
0
0
0
17
238
238
238
238
238
238
238
238
238
238
238
238
238
238
238
238
238
238
238
233
229
20
0
1
0
0
0
0
0
0
0
73
238
193
0
0
52
0
0
0
0
0
209
238
238
238
238
174
0
52
0
116
238
238
32
0
0
0
0
179
238
238
238
238
238
238
238
238
238
238
238
238
238
238
238
238
238
238
238
238
173
0
0
0
0
0
0
0
0
0
0
0
203
237
232
238
11
0
0
0
0
40
238
238
122
237
238
173
0
187
57
112
238
212
0
0
0
0
41
238
238
238
238
238
238
238
238
238
238
238
238
238
238
238
238
238
238
238
238
148
0
0
0
0
0
0
0
0
0
0
0
0
28
238
179
11
0
0
0
0
0
78
238
238
27
49
238
238
226
238
106
61
238
238
35
0
0
0
140
238
238
238
238
238
238
238
238
238
238
238
238
238
179
144
123
100
67
12
7
0
0
0
0
0
0
0
0
0
0
0
0
0
0
1
0
0
0
0
0
0
0
52
238
238
98
0
42
238
238
238
66
0
237
238
235
206
182
227
238
238
238
238
238
238
238
238
238
238
238
221
19
1
0
0
22
10
0
0
0
0
0
0
0
0
0
0
0
0
0
0
0
0
0
0
0
0
0
0
0
0
0
0
156
238
236
11
0
6
90
69
0
0
74
238
238
238
238
238
238
238
238
238
238
238
238
238
238
238
221
0
0
0
0
0
195
238
226
60
0
0
0
0
0
0
0
0
0
0
0
0
0
0
0
0
0
0
0
0
0
0
0
0
0
17
48
49
0
0
0
0
0
0
0
49
234
238
238
238
238
238
238
238
238
238
238
238
238
238
93
0
0
0
0
27
238
238
238
238
152
0
0
0
0
0
0
0
0
0
0
0
0
0
0
0
0
0
0
0
0
0
0
0
0
0
0
0
0
0
0
0
0
0
0
0
1
16
17
0
233
238
238
238
238
238
238
238
238
238
238
30
0
0
0
164
238
238
238
238
238
170
0
0
0
0
0
0
0
0
0
0
0
0
0
0
0
0
0
0
0
0
0
0
0
0
0
0
0
0
0
0
0
0
0
0
0
0
0
0
151
238
238
238
238
238
238
238
238
238
238
216
0
0
42
238
238
238
238
238
238
238
134
0
0
0
0
0
0
0
0
0
0
0
0
0
0
0
0
0
0
0
0
0
0
0
0
0
0
0
0
0
0
0
0
67
236
227
177
20
0
219
238
238
238
238
238
238
238
238
238
238
117
0
159
238
238
238
238
238
238
238
238
69
0
0
0
0
0
0
0
0
0
0
0
0
0
0
0
0
0
0
0
0
0
0
0
0
0
0
0
0
0
0
0
192
238
238
238
232
76
0
177
238
238
238
238
238
238
238
238
238
238
0
216
238
238
238
238
238
238
238
238
235
0
0
0
0
0
0
0
0
0
0
0
0
0
0
0
0
0
0
0
0
0
0
0
0
0
0
0
0
0
0
0
234
238
238
238
238
238
222
157
109
225
238
238
238
238
238
238
238
238
74
233
238
238
238
238
238
238
238
238
238
135
0
0
0
0
0
0
0
0
0
0
0
0
0
0
0
0
0
0
0
0
0
0
0
0
0
0
0
0
0
0
238
238
238
238
238
238
238
238
238
230
238
238
238
238
238
238
238
238
158
207
238
238
238
238
238
238
238
238
238
200
0
0
0
0
0
0
0
0
0
0
0
0
0
0
0
0
0
0
0
0
0
0
0
0
0
0
0
0
0
0
215
238
238
233
238
238
238
238
238
238
238
238
238
238
238
238
238
238
194
126
171
184
238
238
238
238
238
238
238
207
0
0
0
0
0
0
0
0
0
0
0
0
0
0
0
0
0
0
0
0
0
0
0
0
0
0
0
0
0
0
155
238
238
139
0
171
238
238
238
238
238
238
238
238
238
238
238
238
179
0
0
0
76
238
238
238
238
238
238
167
0
0
0
0
0
0
0
0
0
0
0
0
0
0
0
0
0
0
0
0
0
0
0
0
0
0
0
0
0
0
34
238
238
238
118
0
125
238
238
238
238
238
238
238
238
238
238
238
89
0
0
0
83
238
238
238
238
238
238
50
0
0
0
0
0
0
0
0
0
0
0
0
0
0
0
0
0
0
0
0
0
0
0
0
0
0
0
0
0
0
0
132
238
238
238
0
0
44
222
238
238
238
238
238
238
238
238
171
0
0
52
179
225
238
238
238
238
238
105
0
0
0
0
0
0
0
0
0
0
0
0
0
0
0
0
0
0
0
0
0
0
0
0
0
0
0
0
0
0
0
0
199
238
238
238
75
0
0
0
54
161
238
238
238
238
215
79
0
0
79
238
238
238
238
238
238
238
159
0
0
0
0
0
0
0
0
0
0
0
0
0
0
0
0
0
0
0
0
0
0
0
0
0
0
0
0
0
0
0
0
0
233
238
238
238
168
0
0
0
0
0
0
18
22
13
0
0
0
17
235
238
238
238
238
238
203
90
0
0
0
0
0
0
0
0
0
0
0
0
0
0
0
0
0
0
0
0
0
0
0
0
0
0
0
0
0
0
0
0
0
0
194
238
238
238
238
6
0
0
0
0
0
0
0
0
0
0
0
80
238
238
238
238
238
110
10
0
0
0
0
0
0
0
0
0
0
0
0
0
0
0
0
0
0
0
0
0
0
0
0
0
0
0
0
0
0
0
0
0
0
0
39
238
238
238
238
134
0
0
0
0
0
0
0
0
0
0
0
85
238
238
238
238
238
238
231
0
0
0
0
0
0
0
0
0
0
0
0
0
0
0
0
0
0
0
0
0
0
0
0
0
0
0
0
0
0
0
0
0
0
0
0
178
238
238
234
226
96
0
0
0
0
0
0
0
0
0
0
0
89
238
238
238
238
238
238
170
9
0
0
0
0
0
0
0
0
0
0
0
0
0
0
0
0
0
0
0
0
0
0
0
0
0
0
0
0
0
0
0
0
0
15
238
216
238
238
167
185
228
22
0
0
0
0
0
0
0
0
0
0
8
67
133
238
238
238
238
238
141
40
1
0
0
0
0
0
0
0
0
0
0
0
0
0
0
0
0
0
0
0
0
0
0
0
0
0
0
0
0
0
0
0
193
179
225
47
238
190
238
57
0
0
0
0
0
0
0
0
0
0
0
0
0
105
238
238
238
238
238
238
238
169
89
29
0
0
0
0
0
0
0
0
0
0
0
0
0
0
0
0
0
0
0
0
0
0
0
0
0
0
0
0
37
149
167
181
222
142
238
33
0
0
0
0
0
0
0
0
0
0
0
0
0
0
232
238
238
189
238
205
238
238
238
238
148
0
0
0
0
0
0
0
0
0
0
0
0
0
0
0
0
0
0
0
0
0
0
0
0
0
0
0
2
119
26
174
189
0
140
0
0
0
0
0
0
0
0
0
0
0
0
0
0
0
6
0
217
228
117
189
56
238
121
238
238
0
0
0
0
0
0
0
0
0
0
0
0
0
0
0
0
0
0
0
0
0
0
0
0
0
0
0
0
0
0
60
0
1
0
0
0
0
0
0
0
0
0
0
0
0
0
0
0
0
0
0
136
219
76
238
161
238
204
232
152
0
0
0
0
0
0
0
0
0
0
0
0
0
0
0
0
0
0
0
0
0
0
0
0
0
0
0
0
0
0
0
0
0
0
0
0
0
0
0
0
0
0
0
0
0
0
0
0
0
0
0
0
91
40
228
99
146
180
117
0
0
0
0
0
0
0
0
0
0
0
0
0
0
0
0
0
0
0
0
0
0
0
0
0
0
0
0
0
0
0
0
0
0
0
0
0
0
0
0
0
0
0
0
0
0
0
0
0
0
0
0
0
0
0
0
0
29
24
0
0
0
0
0
0
0
0
0
0
0
0
0
0
0
0
0
0
0
0
0
0
0
0
0
0
0
0
0
0
0
0
0
0
0
0
0
0
0
0
0
0
0
0
0
0
0
0
0
0
0
0
0
0
0
0
0
0
0
0
0
0
0
0
0
0
0
0
0
0
0
0
0
0
