P2
# CREATOR: Reed College... Hell Yeah!
60
68
255
255
255
255
255
255
255
255
255
255
255
255
255
255
255
255
255
255
255
255
255
255
255
255
255
255
255
255
255
255
255
255
255
255
255
255
255
255
255
255
255
255
255
255
255
255
255
255
255
255
255
255
255
255
255
255
255
255
255
255
255
255
255
255
255
255
255
255
255
255
255
255
255
255
255
255
255
255
255
255
255
255
255
255
255
255
255
255
255
255
255
255
255
255
255
255
255
255
255
255
255
255
255
255
255
255
255
255
255
255
255
255
255
255
255
255
255
255
255
255
255
255
255
255
255
255
255
255
255
255
255
255
255
255
255
255
255
255
255
255
255
250
234
194
124
73
42
32
39
69
118
178
228
242
250
253
254
255
249
248
229
251
251
254
254
255
255
255
255
255
255
255
255
255
255
255
255
255
255
255
255
255
255
255
255
255
255
255
255
255
255
255
255
255
255
247
236
219
191
139
104
154
119
41
37
32
22
20
19
18
33
49
66
146
216
226
225
217
229
168
115
213
239
235
247
252
252
254
254
255
255
255
255
255
255
255
255
255
255
255
255
255
255
255
255
255
255
255
255
255
255
247
233
222
213
166
118
85
50
62
153
161
39
25
35
37
22
19
19
20
24
48
51
57
104
199
193
193
187
138
57
45
47
54
45
39
50
65
91
139
197
224
231
237
246
250
251
252
253
254
254
255
255
255
255
255
255
255
243
226
222
221
210
144
66
74
79
55
38
51
161
168
67
26
22
36
38
26
19
18
37
52
52
51
69
133
185
191
192
170
74
45
42
42
39
27
35
52
54
54
66
137
215
225
226
228
237
248
250
251
251
252
252
254
254
251
227
221
221
221
218
181
75
50
54
72
79
52
29
30
77
162
169
68
25
20
25
36
38
41
51
51
52
54
69
142
186
191
192
193
204
174
64
45
43
60
141
144
93
60
55
84
208
235
232
228
227
230
246
251
252
252
251
251
238
222
221
221
221
220
207
133
64
50
49
51
75
71
56
60
37
38
69
165
136
64
29
21
47
57
70
68
59
53
65
164
189
194
194
192
181
133
52
58
65
69
81
123
173
92
143
174
197
226
235
242
233
238
243
246
250
248
234
221
228
235
230
228
229
211
147
89
106
126
103
124
131
172
193
130
42
38
75
166
90
54
71
68
56
54
59
71
42
62
158
190
192
192
193
171
84
55
67
46
43
45
71
92
165
195
185
76
57
95
207
229
240
246
245
230
209
201
198
212
217
227
234
219
137
81
77
56
46
55
119
135
159
164
171
170
74
28
58
154
88
73
72
73
73
61
52
94
165
193
195
195
195
206
206
131
49
44
47
43
42
63
143
199
159
106
82
81
59
65
126
225
244
239
205
197
196
204
194
194
201
212
179
67
50
46
45
48
50
49
63
48
41
30
38
33
35
72
93
102
138
69
56
53
53
24
46
161
193
198
204
196
213
217
176
51
40
52
51
44
47
93
182
195
150
135
139
129
93
63
101
215
217
213
207
204
204
211
204
199
194
177
103
53
46
58
75
77
79
76
77
58
68
100
32
36
139
218
228
228
223
208
111
48
31
21
50
185
212
217
217
220
222
193
100
33
25
31
64
56
77
83
102
119
110
88
80
88
115
169
134
215
206
203
207
205
203
215
216
227
234
223
173
95
92
104
104
107
117
121
154
200
200
122
50
82
184
227
233
234
211
103
45
43
43
33
51
172
206
216
218
219
233
196
73
57
55
54
55
71
77
79
81
105
180
238
230
227
227
222
199
195
196
220
228
233
242
242
245
237
228
185
87
49
86
197
236
248
219
207
196
180
143
110
90
69
77
159
207
230
201
73
48
43
41
36
55
157
190
196
235
246
230
133
68
57
55
54
54
55
59
66
107
229
251
251
239
218
196
193
192
192
180
143
156
194
214
222
221
212
147
66
55
63
74
76
74
56
39
42
45
46
49
74
93
103
118
173
211
197
181
105
31
22
21
21
37
117
206
230
235
235
188
91
77
65
55
52
31
19
20
56
165
241
251
244
215
200
196
194
193
171
74
24
26
84
192
224
212
178
95
81
78
77
74
70
69
49
22
19
26
50
89
99
184
226
228
200
194
181
168
165
112
29
19
18
23
90
215
241
248
217
97
79
75
73
72
36
22
27
32
48
191
242
248
227
217
201
196
195
195
166
42
35
81
130
210
199
217
200
99
70
74
49
43
43
42
39
32
76
141
183
147
96
139
155
134
140
145
45
24
21
21
20
19
25
58
89
168
221
194
88
81
114
75
58
28
23
18
18
24
73
186
223
240
248
232
203
197
200
196
168
65
72
54
54
80
194
184
210
244
234
147
65
46
43
43
47
88
181
189
145
68
61
69
86
153
211
197
98
33
23
21
21
21
42
70
75
96
196
218
206
221
187
92
56
43
23
21
27
40
36
123
194
195
198
211
215
214
216
212
176
95
71
40
40
79
123
73
105
102
80
59
46
45
45
45
46
78
193
177
80
56
54
59
95
191
204
228
185
91
35
24
21
21
44
58
74
75
94
204
224
227
210
113
102
193
103
66
42
36
20
41
146
187
194
195
198
212
216
217
198
122
91
171
195
177
127
102
59
51
51
54
43
42
42
43
45
47
79
179
163
79
74
76
93
172
219
211
184
168
137
40
23
21
50
54
50
57
72
99
198
223
202
196
219
234
196
91
88
164
57
23
47
171
185
170
181
193
198
209
182
76
88
187
222
214
176
46
32
38
25
19
21
37
40
39
40
42
43
48
76
144
152
90
66
58
70
59
63
56
53
51
52
54
54
36
22
51
54
47
41
117
159
49
55
58
201
216
194
186
191
192
192
192
174
84
56
175
182
127
34
32
52
83
201
207
206
182
76
50
42
42
42
42
42
40
28
23
38
40
34
37
115
182
178
122
90
121
142
42
47
43
41
32
22
21
49
33
20
20
23
20
20
58
73
83
128
165
78
69
76
158
150
134
85
27
47
150
77
25
21
29
35
77
174
192
222
221
210
208
178
146
133
140
152
138
42
21
21
34
27
19
34
114
154
59
44
68
148
147
95
63
54
50
72
124
181
168
63
53
22
27
49
51
53
66
87
92
59
58
68
84
118
35
24
37
117
189
172
90
152
157
43
87
198
222
226
200
210
223
230
227
227
225
182
68
29
19
20
30
40
39
29
35
42
62
140
204
211
195
93
141
210
216
213
234
242
207
141
49
21
38
41
53
54
53
54
54
57
67
76
97
129
47
87
154
74
68
158
213
208
154
68
74
157
177
199
193
192
192
192
201
202
195
182
97
70
43
40
37
27
26
43
74
144
199
195
195
198
67
69
45
42
43
51
115
117
82
123
187
181
147
108
61
54
53
54
59
68
76
76
99
176
120
148
58
51
60
83
202
217
152
76
87
152
199
212
201
194
193
192
192
193
211
210
202
194
178
154
159
186
191
192
188
194
202
203
214
171
54
50
61
75
75
72
76
76
92
152
141
107
80
75
71
90
153
86
77
76
76
77
97
169
123
65
71
146
195
188
177
193
194
205
201
234
220
214
225
199
195
197
208
207
197
196
195
196
198
207
233
200
168
79
47
42
40
85
182
210
199
158
107
138
194
92
78
79
96
117
82
77
77
77
77
108
206
103
76
62
56
55
76
166
159
81
72
168
196
203
211
199
196
217
230
235
231
212
198
196
196
219
203
213
201
196
194
193
199
226
204
145
41
27
37
47
74
73
68
160
223
248
252
231
133
84
77
100
176
95
81
78
77
76
82
132
208
100
73
57
53
59
105
197
145
39
52
135
213
221
218
205
200
226
232
242
224
205
197
215
203
196
196
203
213
201
196
213
222
185
122
53
37
24
31
74
84
51
58
99
229
248
242
185
94
80
96
163
113
81
77
77
79
77
97
189
204
91
69
58
55
48
57
157
162
63
108
158
240
235
221
212
224
229
232
241
214
234
203
196
196
196
196
198
210
223
231
211
186
124
34
24
50
127
185
218
221
151
91
106
211
246
251
230
133
117
189
100
79
77
77
77
77
88
150
221
146
84
68
51
22
22
31
82
190
243
240
233
224
216
219
243
244
199
175
211
230
206
197
196
206
213
212
225
238
236
209
193
145
37
20
40
138
189
209
238
241
181
93
104
204
247
244
217
211
211
216
95
79
87
138
164
172
225
236
169
90
77
41
23
18
42
65
74
98
194
245
221
201
200
239
244
190
93
80
96
181
220
201
197
225
235
228
212
216
218
209
165
45
24
41
140
185
193
195
204
189
122
85
105
219
227
221
213
200
207
219
169
91
79
105
224
228
165
94
80
51
45
39
43
51
54
67
76
76
69
72
70
172
223
232
227
134
88
81
76
120
219
216
226
215
198
199
214
217
208
165
47
25
41
133
213
219
197
194
182
131
68
67
106
198
223
218
225
225
217
140
66
66
78
96
164
146
80
48
46
46
60
71
57
53
56
101
205
166
62
45
90
181
222
215
152
100
91
59
97
157
217
199
204
195
194
196
198
201
154
42
24
37
115
184
202
215
212
186
116
83
74
62
180
195
209
215
230
212
73
44
55
62
70
84
93
113
51
43
53
74
77
71
57
41
22
31
51
102
180
169
161
223
228
180
64
83
47
45
60
138
194
101
108
181
191
196
173
76
34
31
33
92
180
193
195
192
146
50
22
21
53
174
206
209
207
220
125
51
27
28
29
24
23
33
62
116
47
71
78
90
61
30
21
19
19
34
69
75
86
139
185
99
29
23
24
38
44
46
55
117
190
79
49
64
73
32
20
18
21
32
85
199
224
192
110
64
42
21
25
80
185
202
221
176
78
75
37
21
18
18
20
21
21
22
46
147
198
179
184
120
32
19
33
59
66
82
188
190
88
67
165
107
29
24
52
89
112
195
158
115
195
85
58
52
30
19
18
36
50
66
202
235
219
105
79
67
68
115
181
220
225
196
93
77
63
56
42
31
20
18
21
27
33
71
71
85
160
192
193
182
103
58
70
154
166
69
183
214
215
200
196
193
167
81
85
197
214
204
163
189
205
181
77
57
48
23
44
54
94
207
226
204
100
75
86
125
200
199
209
220
184
86
62
73
78
72
47
43
42
39
28
54
74
79
70
42
47
98
213
227
221
174
97
164
189
196
212
216
214
201
194
163
56
45
59
139
206
210
199
194
201
189
136
66
57
55
55
82
196
223
220
166
72
55
86
190
242
250
241
205
80
73
75
76
52
46
45
43
42
46
55
49
56
52
45
45
69
75
78
79
101
180
191
192
192
196
211
216
216
209
188
126
45
94
203
212
192
211
198
195
202
178
89
60
56
55
63
117
205
198
208
136
66
57
158
191
195
224
207
111
79
76
71
46
43
59
47
46
53
73
44
46
46
44
48
73
78
77
77
80
107
186
192
193
192
193
200
212
213
214
205
170
59
41
45
71
193
211
202
197
228
180
74
72
115
65
65
119
189
123
170
133
65
69
184
222
229
224
179
75
65
64
45
42
68
69
46
45
46
45
61
64
28
21
46
57
74
78
71
121
205
210
197
195
200
195
194
201
210
203
208
201
158
60
115
215
238
248
244
231
223
159
70
83
187
169
72
59
61
72
145
157
70
80
186
220
226
211
140
69
60
46
45
60
74
72
46
43
43
66
76
56
86
105
112
139
172
206
215
219
218
217
208
196
196
209
209
197
196
221
228
238
240
227
228
243
249
251
249
240
234
173
72
75
157
213
176
74
57
77
173
192
76
59
66
87
97
79
74
77
60
48
46
74
78
76
65
68
79
113
211
215
217
216
206
211
216
219
220
220
220
219
218
210
197
195
208
244
244
231
227
229
217
213
199
216
227
230
232
230
233
210
119
65
86
202
225
215
174
187
223
220
166
90
81
80
79
78
79
79
78
74
73
79
80
80
79
79
115
232
245
223
218
193
87
52
74
166
209
216
217
218
217
218
215
221
227
230
245
250
246
214
212
216
216
220
230
230
230
230
233
230
228
215
198
201
225
229
230
230
230
230
228
195
99
83
80
77
63
57
59
71
77
79
80
80
80
98
184
242
250
249
248
210
70
48
45
56
120
204
216
217
217
217
218
243
250
249
247
227
218
217
217
217
217
226
248
247
235
231
233
230
230
228
227
227
228
229
230
230
230
230
232
243
251
244
244
224
99
64
57
55
56
64
76
79
80
80
106
217
249
254
234
121
56
47
46
46
54
110
204
218
220
218
220
248
251
246
221
217
217
217
217
217
217
230
249
251
253
254
255
254
253
251
235
229
227
227
227
228
229
230
230
230
233
247
253
236
145
76
59
56
55
55
56
63
76
71
52
89
208
240
202
71
49
46
46
46
46
59
129
206
218
220
236
253
235
223
221
220
218
217
217
217
217
238
250
251
251
251
252
252
254
255
253
241
231
227
227
226
226
227
227
166
75
71
120
222
222
105
65
57
55
55
55
55
33
33
43
61
139
209
140
67
49
46
46
46
46
46
67
162
212
219
250
227
221
221
221
221
221
221
219
218
218
247
250
251
251
251
252
243
231
229
235
248
250
236
229
227
227
226
202
98
59
54
55
80
181
218
118
66
57
55
55
26
22
21
24
36
73
173
87
68
51
47
46
46
46
46
46
77
198
238
223
221
220
220
221
219
218
217
218
220
233
250
251
251
251
251
251
248
234
228
226
226
230
243
249
237
229
227
197
76
55
52
52
52
55
77
130
136
74
58
26
22
21
21
21
21
46
126
61
49
46
46
46
46
46
46
46
59
139
212
219
220
220
220
220
220
220
218
217
222
247
251
253
254
253
251
252
251
247
232
227
226
226
226
226
229
236
238
201
75
55
52
52
52
52
52
55
66
62
30
22
21
22
21
21
21
31
68
54
46
46
46
46
46
46
46
46
56
110
211
226
221
221
221
221
221
221
220
224
248
251
251
251
251
251
251
252
252
252
248
232
227
226
226
226
226
226
226
201
87
57
53
54
52
52
52
52
53
38
24
22
34
52
33
23
21
27
58
91
78
76
50
47
46
46
46
53
81
125
235
242
223
221
220
220
220
220
229
251
254
254
252
251
251
251
251
251
251
251
251
248
233
228
226
226
226
226
226
207
116
62
66
133
191
106
60
53
48
22
23
27
41
57
40
24
21
29
81
178
194
192
147
61
48
46
65
78
89
146
228
221
221
221
221
220
220
244
253
254
254
254
254
254
252
251
251
251
251
251
251
251
248
237
229
228
236
245
235
224
179
71
54
67
144
199
131
64
37
20
19
25
68
75
70
42
26
41
128
186
194
187
132
58
56
77
80
74
80
176
214
220
221
221
221
238
253
254
254
254
254
254
254
254
254
254
253
253
251
251
252
253
252
251
245
231
227
228
238
246
222
131
64
53
81
205
220
154
49
24
19
41
64
74
76
69
56
90
180
187
146
74
58
72
78
70
49
63
145
209
219
221
221
231
252
255
255
255
255
255
255
255
255
254
255
255
255
255
254
254
252
251
251
252
254
251
239
229
227
230
221
117
76
58
73
165
188
193
188
147
87
60
61
73
78
102
174
218
215
157
71
57
58
66
47
46
56
117
205
219
225
240
253
255
255
255
255
255
255
255
255
255
255
255
255
255
254
255
254
255
255
254
253
251
251
251
250
237
230
227
200
91
77
76
84
112
186
192
193
195
225
230
230
235
241
241
230
225
189
76
58
56
46
33
47
82
155
211
235
251
255
255
255
255
255
255
255
255
255
255
255
255
255
255
255
255
255
255
255
255
255
254
254
254
253
252
251
248
234
230
205
101
69
74
71
75
192
214
217
230
249
253
253
252
251
246
231
217
156
68
55
45
29
52
138
203
218
221
222
251
254
255
255
255
255
255
255
255
255
255
255
255
255
255
255
255
255
255
255
255
255
255
255
255
254
254
252
252
248
235
224
179
74
61
52
59
129
207
220
238
253
254
254
254
252
250
242
219
153
67
54
45
36
43
46
79
199
218
229
251
254
255
255
255
255
255
255
255
255
255
255
255
255
255
255
255
255
255
255
255
255
255
255
255
255
255
255
254
252
251
245
209
104
32
27
36
67
158
218
222
248
254
255
255
254
253
250
242
219
151
67
54
46
37
27
50
109
199
218
233
247
254
255
255
255
255
255
255
255
255
255
255
255
255
255
255
255
255
255
255
255
255
255
255
255
255
255
255
255
254
252
212
61
43
23
53
70
75
81
211
249
254
255
255
255
255
254
253
250
240
217
175
123
49
22
22
29
53
120
185
215
229
241
250
254
255
255
255
255
255
255
255
255
255
255
255
255
255
255
255
255
255
255
255
255
255
255
255
255
255
255
226
108
74
65
121
53
52
77
183
240
252
255
255
255
255
255
255
255
254
253
250
231
124
34
20
24
19
26
31
48
99
154
208
248
254
255
255
255
255
255
255
255
255
255
255
255
255
255
255
255
255
255
255
255
255
255
255
255
255
255
235
212
129
91
94
65
114
89
192
225
242
252
254
255
255
255
255
255
255
255
255
254
225
75
39
43
51
49
38
35
21
21
69
145
235
252
254
255
255
255
255
255
255
255
255
255
255
255
255
255
255
255
255
255
255
255
255
255
255
255
255
232
189
209
133
130
201
158
219
233
231
244
250
253
254
255
255
255
255
255
255
255
237
222
214
79
62
92
81
121
59
113
61
83
204
225
238
250
254
255
255
255
255
255
255
255
255
255
255
255
255
255
255
255
255
255
255
255
255
255
255
255
255
248
224
248
245
248
239
237
246
242
249
251
252
253
254
255
255
255
255
255
244
249
209
141
101
141
82
101
67
80
76
140
216
232
228
230
246
250
252
254
255
255
255
255
255
255
255
255
255
255
255
255
255
255
255
255
255
255
255
255
255
255
255
255
255
255
254
251
254
254
254
253
253
254
253
254
254
255
255
255
255
255
255
240
200
198
121
165
134
116
165
222
232
229
230
230
237
248
251
251
251
253
254
255
255
255
255
255
255
255
255
255
255
255
255
255
255
255
255
255
255
255
255
255
255
255
255
255
255
255
255
255
255
254
255
255
255
255
255
255
255
255
255
255
255
255
255
251
237
239
246
247
237
241
238
236
241
249
219
215
215
215
216
217
253
254
254
254
255
255
255
255
255
255
255
255
255
255
255
255
255
255
255
255
255
255
255
255
255
255
255
255
255
255
255
255
255
255
255
255
255
255
255
255
255
255
255
255
255
255
255
255
255
255
255
250
252
254
254
253
253
253
252
221
