P2
# CREATOR: Reed College... Hell Yeah!
64
51
255
4
2
3
5
5
5
4
4
5
5
7
6
13
11
12
10
14
14
14
14
16
16
18
19
18
21
20
21
21
24
21
21
22
21
23
20
20
19
21
26
24
20
19
19
18
16
18
16
15
13
14
12
12
12
10
12
14
13
13
12
9
8
7
6
4
2
3
5
5
5
4
4
5
5
5
7
10
10
11
11
13
14
14
14
15
16
18
18
18
18
20
21
22
21
17
20
20
22
23
22
20
19
21
22
22
19
18
18
16
17
17
16
14
13
13
12
12
11
10
12
13
12
12
11
9
7
7
5
4
3
4
5
5
4
4
4
5
4
6
6
10
9
11
10
13
13
14
14
15
16
16
17
18
17
18
18
22
31
35
27
23
21
18
19
21
20
19
22
20
18
17
16
15
15
15
15
13
12
12
11
11
11
10
12
12
12
11
10
8
7
6
5
4
3
4
4
4
4
3
3
5
5
5
6
9
9
9
10
12
13
13
14
14
15
16
15
18
26
32
47
80
91
76
68
52
31
27
24
18
20
19
17
18
16
16
15
15
15
15
15
12
12
12
9
11
12
10
12
12
11
11
10
8
7
6
5
4
3
3
4
5
4
3
3
5
4
4
6
10
9
8
9
11
13
13
13
14
14
21
26
25
26
60
79
73
75
83
86
79
68
49
31
28
26
21
21
19
17
17
16
14
14
15
13
11
12
11
9
11
12
10
11
12
12
11
10
8
7
7
6
4
3
4
4
4
3
3
4
5
4
4
6
9
8
7
8
11
13
12
11
19
23
27
32
42
82
94
111
136
156
165
167
157
120
70
40
41
37
33
26
20
20
19
17
15
15
14
13
11
11
11
9
10
11
9
10
11
12
11
9
7
7
6
5
4
3
4
4
4
3
3
4
4
4
4
6
8
7
6
9
11
12
12
21
23
31
41
46
60
103
109
139
168
176
179
178
168
147
99
45
41
41
39
35
28
20
18
17
16
15
15
13
10
12
11
9
11
11
8
11
12
11
11
8
6
7
6
4
3
4
4
4
4
3
2
3
5
4
4
6
6
6
6
9
11
12
23
23
30
39
41
37
52
103
109
135
150
146
133
144
153
131
103
50
36
34
33
36
31
26
20
17
14
15
16
13
11
12
10
8
10
11
9
11
11
11
10
8
7
6
6
4
4
3
4
6
4
3
3
6
5
4
4
6
6
6
5
8
10
21
24
29
33
33
27
31
43
84
106
126
131
112
91
106
103
82
85
51
31
30
28
27
26
24
24
18
14
15
14
13
10
13
12
9
11
9
8
10
9
11
9
8
7
7
5
4
3
3
5
5
4
3
3
4
4
4
4
6
7
6
5
10
28
31
34
35
35
36
38
39
60
124
124
134
148
148
137
145
138
119
102
52
34
37
35
30
32
32
28
25
17
15
16
14
11
13
12
10
12
10
9
11
11
11
9
8
6
7
6
5
3
4
3
5
6
4
4
6
5
3
3
6
6
6
7
27
34
35
35
38
35
37
36
39
60
122
134
134
145
164
155
142
138
139
111
46
36
30
32
36
34
32
31
30
24
18
16
13
10
13
12
10
13
12
10
11
12
12
10
8
7
7
5
5
4
3
5
5
4
4
5
5
4
3
5
7
6
4
18
32
34
36
35
32
29
25
28
29
23
91
143
134
138
136
134
116
83
92
86
29
24
34
33
31
30
31
27
22
21
23
16
11
10
12
11
10
13
11
10
11
12
12
10
9
8
6
4
5
4
3
5
4
6
5
4
5
3
4
5
7
6
8
21
27
32
33
30
27
22
25
24
15
15
40
96
116
127
126
115
106
88
80
64
21
15
17
23
28
29
29
27
25
20
22
20
11
7
9
9
8
11
10
10
12
12
12
11
10
7
6
4
5
3
4
6
5
5
4
4
6
5
5
6
8
4
11
22
28
32
33
25
19
22
22
13
15
12
13
56
104
118
129
125
90
77
83
54
13
15
13
15
20
26
27
29
27
20
22
21
14
7
9
8
7
10
10
10
11
12
12
11
9
7
6
5
5
3
3
5
4
4
3
5
6
5
5
6
7
11
24
21
26
37
35
29
23
12
12
13
14
12
15
57
109
97
114
146
136
114
81
30
14
13
16
16
13
19
26
25
26
27
29
26
18
9
9
8
7
10
15
24
19
13
13
11
9
8
8
4
4
4
4
10
46
73
36
9
7
6
5
5
16
27
22
16
23
27
26
23
16
12
13
13
12
7
13
67
120
98
70
86
98
85
47
11
11
12
13
13
13
15
20
27
24
16
21
24
18
10
8
7
6
14
26
25
16
12
13
11
7
6
8
5
5
4
4
7
36
89
75
25
10
12
15
23
27
26
21
12
12
20
18
15
16
18
15
14
30
50
70
103
130
119
91
43
35
57
49
46
40
18
11
11
15
19
20
22
28
34
29
16
11
12
13
13
12
22
22
18
9
11
10
9
38
69
33
7
6
5
4
7
21
66
95
86
32
23
23
46
78
50
27
21
28
19
19
22
22
32
59
89
106
105
102
112
155
146
115
77
77
96
58
70
82
74
57
33
24
25
26
36
41
39
36
26
18
16
20
14
25
35
62
82
29
12
20
37
74
84
65
40
13
9
12
14
31
76
101
115
81
37
41
94
117
56
44
38
37
44
42
45
55
63
75
97
113
115
108
106
137
167
156
143
152
107
60
75
93
114
100
67
38
40
49
41
34
21
29
34
27
25
31
33
28
36
80
137
69
32
32
79
113
78
54
18
14
11
16
13
27
79
95
117
124
74
60
104
78
35
31
54
61
51
47
39
41
49
44
43
73
104
115
114
117
113
115
120
116
76
71
84
107
76
37
42
63
61
44
28
21
20
25
25
21
20
25
33
32
35
64
121
81
32
74
122
111
75
35
12
12
11
13
11
8
31
75
106
114
123
116
125
65
27
40
72
46
40
31
36
45
48
45
25
21
45
78
89
98
106
102
96
82
83
93
107
67
36
39
59
67
61
57
36
28
25
22
19
18
21
31
34
34
46
79
140
107
100
135
129
85
69
63
24
13
12
9
9
8
16
60
95
112
139
158
143
77
57
64
52
43
39
44
47
39
42
40
20
18
22
26
61
80
100
108
110
110
101
98
62
48
39
41
56
59
51
42
36
33
37
42
34
18
21
39
40
43
52
94
152
148
133
109
123
100
57
34
15
15
10
9
9
11
18
53
97
123
143
149
121
68
75
65
38
43
45
49
41
39
41
37
20
17
22
31
47
61
49
76
82
95
115
84
52
47
35
36
47
53
43
39
36
32
26
38
50
43
35
35
37
39
38
88
145
142
123
118
111
91
58
47
20
14
7
9
8
10
19
29
76
115
134
134
78
54
49
40
44
50
41
50
45
42
43
33
17
13
16
20
36
57
38
59
80
94
115
73
46
34
29
26
43
42
42
39
36
39
34
24
33
51
57
48
32
22
32
71
127
151
144
120
99
73
55
47
19
12
9
8
9
17
14
18
46
83
110
88
37
24
24
33
52
51
42
51
44
44
45
37
18
13
16
15
20
53
45
46
67
91
95
47
25
13
11
13
32
42
42
44
33
39
45
34
28
35
50
53
35
30
25
50
104
140
137
98
51
18
9
8
7
10
12
10
13
14
17
36
40
40
42
42
26
12
25
42
40
36
43
48
41
40
34
25
12
13
27
30
15
36
45
42
54
73
46
19
20
14
9
15
32
39
40
43
35
45
55
36
30
30
36
41
32
28
24
34
66
97
81
41
29
15
15
6
4
12
6
12
16
17
35
49
29
29
23
28
27
14
24
32
28
21
32
42
41
40
40
31
14
14
31
35
14
28
42
30
42
60
30
22
37
26
9
9
28
36
36
38
38
42
51
49
46
47
36
27
28
24
19
13
18
26
17
18
31
19
10
11
5
7
6
15
13
31
57
29
19
45
47
32
16
13
18
24
31
27
30
32
27
30
36
30
12
10
9
9
6
14
38
31
52
57
19
18
37
25
10
14
29
32
37
41
31
33
45
41
36
38
32
27
26
14
13
9
7
8
8
17
36
26
13
10
6
6
11
12
21
40
42
17
8
6
7
8
10
12
19
23
23
27
32
29
21
26
31
27
14
8
6
5
5
10
40
44
58
39
15
8
9
6
6
15
26
32
37
32
31
29
32
29
25
28
28
28
21
7
6
5
4
5
9
14
26
26
22
7
4
4
13
15
14
33
31
10
6
5
6
9
9
10
15
23
21
22
25
24
21
24
25
20
5
5
7
8
5
8
35
54
57
28
11
9
5
4
6
13
27
32
31
31
33
27
22
21
24
28
28
26
16
6
5
4
5
4
5
11
26
24
22
10
4
7
14
7
10
25
25
8
5
5
8
10
9
9
11
18
24
22
26
25
21
22
18
15
4
4
6
7
7
10
26
44
53
19
5
8
8
5
6
11
25
31
29
30
32
27
23
20
21
22
22
22
15
7
4
5
4
4
4
11
20
25
26
14
6
9
6
7
15
18
16
6
5
7
9
9
9
8
7
12
21
19
20
20
21
21
15
10
2
2
4
6
10
15
24
35
43
13
6
6
5
8
6
10
17
25
26
25
24
19
18
16
15
16
16
19
14
6
4
3
1
1
2
10
20
23
26
15
10
11
5
6
18
18
14
4
5
8
8
8
6
6
5
6
9
17
18
21
20
16
13
4
1
2
3
5
11
18
32
33
30
11
6
7
8
7
6
5
13
22
23
23
17
16
12
16
13
11
16
22
21
10
5
2
0
1
1
4
15
30
29
21
17
6
4
5
15
13
11
5
5
5
7
7
6
4
5
4
6
12
14
17
21
21
13
4
2
2
4
5
11
17
31
65
59
13
8
8
5
5
6
10
14
23
20
21
19
12
9
11
7
8
12
14
20
16
11
3
2
4
2
3
13
46
54
41
28
15
14
10
14
14
11
6
4
5
6
5
10
14
10
10
7
11
11
9
18
20
16
11
5
4
3
10
10
26
86
159
161
81
16
10
10
4
5
14
18
21
19
18
17
8
8
13
7
7
4
7
11
14
16
6
5
12
4
11
33
62
53
39
20
26
23
26
20
14
10
8
6
5
9
10
14
14
14
18
13
12
8
6
12
18
13
6
5
5
8
7
10
50
122
171
185
145
39
10
7
6
7
15
20
20
18
17
14
7
9
9
4
6
12
13
11
13
13
4
8
10
10
26
43
56
42
14
10
19
19
28
30
30
14
10
8
4
9
24
23
16
16
24
23
18
6
4
13
19
8
4
4
7
7
4
8
34
104
163
181
154
46
10
5
5
8
22
19
17
16
21
15
4
4
10
17
23
25
20
16
21
15
5
11
14
14
34
47
39
10
4
3
8
9
16
26
32
29
13
8
6
11
28
25
19
14
17
20
15
7
8
17
17
8
7
6
5
5
6
5
17
76
156
170
104
19
5
3
1
6
11
14
16
17
20
10
6
13
22
30
28
21
16
16
25
22
16
19
22
17
20
16
13
10
6
4
6
6
7
12
26
28
17
5
2
7
13
9
19
19
22
22
21
22
20
19
21
20
17
17
17
18
15
19
24
46
68
71
29
18
15
12
13
11
14
13
15
13
19
14
7
4
5
14
22
24
29
19
22
25
29
26
17
7
12
14
12
12
11
9
9
7
8
9
12
17
14
8
7
9
13
15
19
17
18
20
18
18
18
17
16
17
16
18
17
19
20
19
23
21
18
15
22
23
26
27
27
27
28
28
23
24
26
24
23
22
21
20
21
28
40
22
25
30
33
27
15
9
12
9
10
11
10
8
9
8
7
8
10
11
10
7
7
8
11
11
17
19
21
19
16
15
16
17
17
15
15
16
17
18
20
20
21
24
25
23
22
22
24
22
25
27
26
25
23
23
21
24
28
27
27
27
23
18
15
13
17
25
29
23
12
10
11
8
10
11
8
7
8
7
7
7
8
10
10
8
6
6
8
10
15
16
16
14
14
14
14
15
17
15
14
15
17
17
16
17
17
20
22
22
23
22
22
22
23
24
23
23
21
20
20
21
21
21
24
25
21
15
13
13
14
15
19
17
9
10
10
7
10
11
8
7
8
7
7
7
8
9
8
7
6
6
7
8
13
14
14
13
13
12
13
15
14
13
13
14
15
16
16
16
16
19
20
19
21
22
22
21
22
22
21
21
20
20
21
19
18
20
24
25
21
16
16
15
10
6
10
15
14
11
10
7
9
10
7
6
7
6
7
7
9
8
7
8
4
3
4
7
12
13
13
13
12
13
14
14
13
12
12
13
14
15
15
17
18
19
19
17
18
21
22
22
21
21
20
20
19
20
20
19
17
21
24
23
21
15
15
8
4
4
5
8
12
11
8
7
9
10
7
6
6
6
7
7
9
6
6
7
4
4
4
7
12
10
10
10
11
13
13
13
12
11
12
13
16
16
15
17
17
17
17
16
17
18
18
20
21
20
20
19
17
17
18
17
18
21
21
20
19
12
9
5
5
9
9
10
13
10
7
6
9
9
7
5
6
7
6
6
6
5
5
8
7
5
4
6
9
7
8
8
9
11
12
12
11
9
10
12
14
16
14
15
15
14
15
15
15
15
16
18
19
18
17
16
15
16
16
16
18
20
20
18
17
13
7
6
9
11
10
10
8
8
6
5
8
8
6
6
6
6
5
4
4
4
6
9
9
7
4
5
6
6
6
6
6
8
10
10
8
7
8
9
13
16
14
15
14
14
14
14
14
12
11
16
17
16
15
15
13
14
16
17
18
19
19
17
16
9
7
6
7
9
10
11
9
7
5
5
7
7
5
5
5
5
3
4
4
3
5
7
9
7
4
3
4
5
5
5
4
5
8
8
7
6
6
8
12
16
14
15
17
16
15
14
14
10
9
15
16
14
15
15
13
12
13
15
17
19
18
17
13
7
6
4
5
9
10
9
7
6
4
4
6
6
5
4
4
2
3
4
4
4
6
8
8
5
3
3
4
4
4
4
4
6
6
6
6
5
6
6
6
10
16
22
29
25
23
14
14
12
8
8
12
12
12
12
11
11
12
14
15
16
16
12
10
5
4
4
6
8
8
9
8
6
3
4
6
6
5
4
4
3
3
4
4
4
5
7
6
2
2
4
5
5
5
5
6
12
11
6
4
4
5
5
4
5
11
16
19
22
19
11
11
10
6
7
11
11
12
10
10
11
11
11
13
15
13
12
9
3
3
4
6
8
7
7
7
5
3
3
5
5
4
3
2
2
2
4
4
3
6
10
10
5
1
2
2
2
5
5
7
13
11
6
3
2
2
2
2
2
6
12
16
22
21
14
11
9
6
6
11
11
12
11
11
10
9
9
11
11
12
10
8
2
2
2
5
8
7
6
7
5
3
2
4
4
3
1
1
